<?xml version="1.0" encoding="UTF-8" standalone="no"?>
<!-- Created with Inkscape (http://www.inkscape.org/) -->

<svg
   xmlns:dc="http://purl.org/dc/elements/1.1/"
   xmlns:cc="http://creativecommons.org/ns#"
   xmlns:rdf="http://www.w3.org/1999/02/22-rdf-syntax-ns#"
   xmlns:svg="http://www.w3.org/2000/svg"
   xmlns="http://www.w3.org/2000/svg"
   xmlns:sodipodi="http://sodipodi.sourceforge.net/DTD/sodipodi-0.dtd"
   xmlns:inkscape="http://www.inkscape.org/namespaces/inkscape"
   width="128"
   height="128"
   id="svg2988"
   version="1.1"
   inkscape:version="0.48.5 r10040"
   sodipodi:docname="icon-cycling.svg"
   inkscape:export-filename="/home/mihi/Source/actispy/images/icon-cycling.png"
   inkscape:export-xdpi="90"
   inkscape:export-ydpi="90">
  <defs
     id="defs2990" />
  <sodipodi:namedview
     id="base"
     pagecolor="#ffffff"
     bordercolor="#666666"
     borderopacity="1.0"
     inkscape:pageopacity="0.0"
     inkscape:pageshadow="2"
     inkscape:zoom="4.3515624"
     inkscape:cx="63.999999"
     inkscape:cy="63.999997"
     inkscape:document-units="px"
     inkscape:current-layer="layer1"
     showgrid="false"
     fit-margin-top="0"
     fit-margin-left="0"
     fit-margin-right="0"
     fit-margin-bottom="0"
     inkscape:window-width="1364"
     inkscape:window-height="748"
     inkscape:window-x="0"
     inkscape:window-y="18"
     inkscape:window-maximized="0" />
  <metadata
     id="metadata2993">
    <rdf:RDF>
      <cc:Work
         rdf:about="">
        <dc:format>image/svg+xml</dc:format>
        <dc:type
           rdf:resource="http://purl.org/dc/dcmitype/StillImage" />
        <dc:title></dc:title>
      </cc:Work>
    </rdf:RDF>
  </metadata>
  <g
     inkscape:label="Layer 1"
     inkscape:groupmode="layer"
     id="layer1"
     transform="translate(-73.14285,-162.6479)">
    <path
       sodipodi:type="arc"
       style="color:#000000;fill:#4d4d4d;fill-opacity:1;stroke:none;stroke-width:0;marker:none;visibility:visible;display:inline;overflow:visible;enable-background:accumulate"
       id="path3008"
       sodipodi:cx="137.14285"
       sodipodi:cy="226.6479"
       sodipodi:rx="291.42856"
       sodipodi:ry="305.71429"
       d="M 418.24706,145.99591 C 460.70848,308.85577 369.27562,476.98889 214.02605,521.53176 58.776484,566.07462 -101.49994,470.15975 -143.96136,307.29989 -186.42278,144.44004 -94.989918,-23.693084 60.259652,-68.235948 215.5084,-112.77858 375.78413,-16.864957 418.24649,145.9937"
       sodipodi:start="6.0162102"
       sodipodi:end="12.299388"
       sodipodi:open="true"
       transform="matrix(0.21955267,0,0,0.20929319,107.03277,179.21204)" />
    <g
       id="g4745"
       transform="translate(-19.418315,-2.1831171)">
      <path
         style="fill:#ffffff"
         id="path4704"
         d="m 154.58582,194.55252 c 4.343,0 7.85,-3.53 7.85,-7.873 0,-4.343 -3.507,-7.849 -7.85,-7.849 -4.34299,0 -7.87299,3.506 -7.87299,7.849 0,4.343 3.53,7.873 7.87299,7.873 z"
         inkscape:connector-curvature="0" />
      <path
         style="fill:#ffffff"
         id="path4706"
         d="m 141.30183,195.85252 c 0.302,-1.208 -0.464,-2.415 -1.649,-2.717 l -6.549,-1.579 c -1.231,-0.278 -2.438,0.441 -2.717,1.649 l -5.504,22.782 c -0.302,1.208 0.441,2.415 1.649,2.717 l 6.572,1.579 c 1.185,0.302 2.415,-0.441 2.694,-1.649 l 5.504,-22.782 z"
         inkscape:connector-curvature="0" />
      <path
         style="fill:#ffffff"
         id="path4708"
         d="m 171.53882,276.87952 c 0,0.047 -0.023,0.094 -0.023,0.116 0,0.999 0.813,1.812 1.812,1.812 0.906,0 1.672,-0.697 1.788,-1.579 l 13.191,-71.551 c 0,-0.046 0,-0.093 0,-0.14 0,-0.975 -0.79,-1.788 -1.788,-1.788 -0.906,0 -1.603,0.697 -1.789,1.579 l -13.191,71.551 z"
         inkscape:connector-curvature="0" />
      <path
         style="fill:#ffffff"
         id="path4710"
         d="m 127.64683,272.18752 c -0.07,0.372 -0.093,0.744 -0.093,1.115 0,3.066 2.462,5.528 5.527,5.528 2.508,0 4.622,-1.672 5.295,-3.948 l 9.499,-39.317 9.05699,39.085 c 0.581,2.415 2.764,4.181 5.341,4.181 3.066,0 5.527,-2.462 5.527,-5.527 0,-0.418 -0.046,-0.812 -0.115,-1.207 l -12.425,-51.93 1.045,-4.575 0.812,3.6 c 0.743,2.345 2.88,2.578 2.88,2.578 l 12.796,3.251 c 0.256,0.047 0.511,0.07 0.767,0.07 2.09,0 3.785,-1.672 3.785,-3.762 0,-1.788 -1.23,-3.298 -2.902,-3.692 l -11.079,-2.787 -3.042,-12.355 c -1.44,-6.897 -8.035,-6.735 -8.035,-6.735 -6.40999,-0.163 -8.01199,6.572 -8.01199,6.572 l -16.628,69.855 z"
         inkscape:connector-curvature="0" />
    </g>
  </g>
</svg>
