<?xml version="1.0" encoding="UTF-8" standalone="no"?>
<!-- Created with Inkscape (http://www.inkscape.org/) -->

<svg
   xmlns:dc="http://purl.org/dc/elements/1.1/"
   xmlns:cc="http://creativecommons.org/ns#"
   xmlns:rdf="http://www.w3.org/1999/02/22-rdf-syntax-ns#"
   xmlns:svg="http://www.w3.org/2000/svg"
   xmlns="http://www.w3.org/2000/svg"
   xmlns:sodipodi="http://sodipodi.sourceforge.net/DTD/sodipodi-0.dtd"
   xmlns:inkscape="http://www.inkscape.org/namespaces/inkscape"
   width="128"
   height="128"
   id="svg2988"
   version="1.1"
   inkscape:version="0.48.5 r10040"
   sodipodi:docname="icon.svg"
   inkscape:export-filename="/home/mihi/Source/actispy/images/icon-128.png"
   inkscape:export-xdpi="90"
   inkscape:export-ydpi="90">
  <defs
     id="defs2990" />
  <sodipodi:namedview
     id="base"
     pagecolor="#ffffff"
     bordercolor="#666666"
     borderopacity="1.0"
     inkscape:pageopacity="0.0"
     inkscape:pageshadow="2"
     inkscape:zoom="4.3515624"
     inkscape:cx="63.999999"
     inkscape:cy="63.999997"
     inkscape:document-units="px"
     inkscape:current-layer="layer1"
     showgrid="false"
     fit-margin-top="0"
     fit-margin-left="0"
     fit-margin-right="0"
     fit-margin-bottom="0"
     inkscape:window-width="1364"
     inkscape:window-height="748"
     inkscape:window-x="0"
     inkscape:window-y="18"
     inkscape:window-maximized="0" />
  <metadata
     id="metadata2993">
    <rdf:RDF>
      <cc:Work
         rdf:about="">
        <dc:format>image/svg+xml</dc:format>
        <dc:type
           rdf:resource="http://purl.org/dc/dcmitype/StillImage" />
        <dc:title></dc:title>
      </cc:Work>
    </rdf:RDF>
  </metadata>
  <g
     inkscape:label="Layer 1"
     inkscape:groupmode="layer"
     id="layer1"
     transform="translate(-73.14285,-162.6479)">
    <path
       sodipodi:type="arc"
       style="color:#000000;fill:#4d4d4d;fill-opacity:1;stroke:none;stroke-width:0;marker:none;visibility:visible;display:inline;overflow:visible;enable-background:accumulate"
       id="path3008"
       sodipodi:cx="137.14285"
       sodipodi:cy="226.6479"
       sodipodi:rx="291.42856"
       sodipodi:ry="305.71429"
       d="M 418.24706,145.99591 C 460.70848,308.85577 369.27562,476.98889 214.02605,521.53176 58.776484,566.07462 -101.49994,470.15975 -143.96136,307.29989 -186.42278,144.44004 -94.989918,-23.693084 60.259652,-68.235948 215.5084,-112.77858 375.78413,-16.864957 418.24649,145.9937"
       sodipodi:start="6.0162102"
       sodipodi:end="12.299388"
       sodipodi:open="true"
       transform="matrix(0.21955267,0,0,0.20929319,107.03277,179.21204)" />
    <g
       id="g4537"
       transform="translate(321.14286,-498.28571)">
      <path
         style="fill:#ffffff"
         id="path4496"
         d="m -213.77801,763.40261 c 9.106,0 16.495,-7.389 16.495,-16.506 0,-9.095 -7.388,-16.483 -16.495,-16.483 -9.083,0 -16.472,7.389 -16.472,16.483 0,9.118 7.389,16.506 16.472,16.506 z m -20.222,-16.506 c 0,-11.172 9.072,-20.211 20.222,-20.211 11.184,0 20.245,9.039 20.245,20.211 0,11.184 -9.061,20.233 -20.245,20.233 -11.15,0.001 -20.222,-9.049 -20.222,-20.233 z"
         inkscape:connector-curvature="0" />
      <path
         style="fill:#ffffff"
         id="path4498"
         d="m -154.22301,763.59361 c 9.084,0 16.473,-7.377 16.473,-16.494 0,-9.106 -7.389,-16.483 -16.473,-16.483 -9.105,0 -16.494,7.377 -16.494,16.483 0,9.117 7.389,16.494 16.494,16.494 z m -20.244,-16.495 c 0,-11.184 9.072,-20.223 20.244,-20.223 11.15,0 20.223,9.039 20.223,20.223 0,11.184 -9.072,20.233 -20.223,20.233 -11.172,0.001 -20.244,-9.049 -20.244,-20.233 z"
         inkscape:connector-curvature="0" />
      <path
         style="fill:#ffffff"
         id="path4500"
         d="m -174.41101,697.73861 c 4.2,0 7.612,-3.391 7.612,-7.59 0,-4.2 -3.412,-7.613 -7.612,-7.613 -4.199,0 -7.612,3.414 -7.612,7.613 0,4.199 3.413,7.59 7.612,7.59 z"
         inkscape:connector-curvature="0" />
      <path
         style="fill:#ffffff"
         id="path4502"
         d="m -174.09701,716.19861 c -1.101,0.022 -2.29,-0.528 -3.167,-1.909 l -4.939,-7.725 -10.195,10.094 9.454,4.975 c 3.885,1.864 3.301,5.277 3.301,5.277 v 21.401 c 0,2.425 -1.954,4.401 -4.379,4.401 -2.425,0 -4.379,-1.977 -4.379,-4.401 v -17.134 l -16.394,-9.106 c -1.954,-1.089 -3.279,-3.178 -3.279,-5.558 0,-1.64 0.606,-3.145 1.639,-4.267 l 16.079,-16.113 c 1.999,-2.257 4.783,-1.897 4.783,-1.897 3.369,0 5.143,2.942 5.143,2.942 l 8.354,13.092 12.689,-0.022 c 4.559,0 4.559,5.951 0,5.951 h -14.71 z"
         inkscape:connector-curvature="0" />
    </g>
  </g>
</svg>
