<?xml version="1.0" encoding="UTF-8" standalone="no"?>
<!-- Created with Inkscape (http://www.inkscape.org/) -->

<svg
   xmlns:dc="http://purl.org/dc/elements/1.1/"
   xmlns:cc="http://creativecommons.org/ns#"
   xmlns:rdf="http://www.w3.org/1999/02/22-rdf-syntax-ns#"
   xmlns:svg="http://www.w3.org/2000/svg"
   xmlns="http://www.w3.org/2000/svg"
   xmlns:sodipodi="http://sodipodi.sourceforge.net/DTD/sodipodi-0.dtd"
   xmlns:inkscape="http://www.inkscape.org/namespaces/inkscape"
   width="128"
   height="128"
   id="svg2988"
   version="1.1"
   inkscape:version="0.48.5 r10040"
   sodipodi:docname="icon.svg"
   inkscape:export-filename="/home/mihi/Source/actispy/images/icon-128.png"
   inkscape:export-xdpi="90"
   inkscape:export-ydpi="90">
  <defs
     id="defs2990" />
  <sodipodi:namedview
     id="base"
     pagecolor="#ffffff"
     bordercolor="#666666"
     borderopacity="1.0"
     inkscape:pageopacity="0.0"
     inkscape:pageshadow="2"
     inkscape:zoom="0.35"
     inkscape:cx="-229.57142"
     inkscape:cy="-241.71428"
     inkscape:document-units="px"
     inkscape:current-layer="layer1"
     showgrid="false"
     fit-margin-top="0"
     fit-margin-left="0"
     fit-margin-right="0"
     fit-margin-bottom="0"
     inkscape:window-width="1278"
     inkscape:window-height="780"
     inkscape:window-x="0"
     inkscape:window-y="18"
     inkscape:window-maximized="0" />
  <metadata
     id="metadata2993">
    <rdf:RDF>
      <cc:Work
         rdf:about="">
        <dc:format>image/svg+xml</dc:format>
        <dc:type
           rdf:resource="http://purl.org/dc/dcmitype/StillImage" />
        <dc:title></dc:title>
      </cc:Work>
    </rdf:RDF>
  </metadata>
  <g
     inkscape:label="Layer 1"
     inkscape:groupmode="layer"
     id="layer1"
     transform="translate(-73.14285,-162.6479)">
    <path
       sodipodi:type="arc"
       style="color:#000000;fill:#4d4d4d;fill-opacity:1;stroke:none;stroke-width:0;marker:none;visibility:visible;display:inline;overflow:visible;enable-background:accumulate"
       id="path3008"
       sodipodi:cx="137.14285"
       sodipodi:cy="226.6479"
       sodipodi:rx="291.42856"
       sodipodi:ry="305.71429"
       d="M 418.24706,145.99591 C 460.70848,308.85577 369.27562,476.98889 214.02605,521.53176 58.776484,566.07462 -101.49994,470.15975 -143.96136,307.29989 -186.42278,144.44004 -94.989918,-23.693084 60.259652,-68.235948 215.5084,-112.77858 375.78413,-16.864957 418.24649,145.9937"
       sodipodi:start="6.0162102"
       sodipodi:end="12.299388"
       sodipodi:open="true"
       transform="matrix(0.21955267,0,0,0.20929319,107.03277,179.21204)" />
    <g
       id="g3019"
       transform="translate(-97.142857,-354.28571)">
      <path
         style="fill:#ffffff"
         id="path3"
         d="m 217.40636,555.55761 c 6.365,0 11.53,-5.511 11.53,-12.308 0,-6.803 -5.165,-12.316 -11.53,-12.316 -6.366,0 -11.528,5.513 -11.528,12.316 0,6.797 5.162,12.308 11.528,12.308 z"
         inkscape:connector-curvature="0" />
      <path
         style="fill:#ffffff"
         id="path5"
         d="m 253.95736,604.81361 c 1.019,-2.722 -1.022,-20.681 -1.022,-20.681 l -12.736,-21.764 5.096,-2.177 9.681,14.148 7.132,-5.442 -8.663,-17.414 -22.927,-1.085 c -1.528,2.721 -11.209,8.16 -13.247,8.707 -2.038,0.545 -1.021,17.413 -1.021,17.413 l -14.264,0.546 1.019,11.423 23.946,-2.178 2.55,-8.706 c 0,0 3.566,8.165 4.583,9.796 1.019,1.632 -1.017,3.809 -1.017,3.809 l -13.758,8.706 1.018,31.019 h 10.191 l 2.038,-23.942 11.72,-8.162 -1.022,16.868 h 27.517 l 1.528,-11.428 c -3.058,-4.9 -19.365,3.266 -18.342,0.544 z"
         inkscape:connector-curvature="0" />
    </g>
  </g>
</svg>
